<?xml version="1.0" encoding="utf-8"?>
<!-- Generator: Adobe Illustrator 22.0.1, SVG Export Plug-In . SVG Version: 6.00 Build 0)  -->
<svg version="1.1" id="Layer_1" xmlns="http://www.w3.org/2000/svg" xmlns:xlink="http://www.w3.org/1999/xlink" x="0px" y="0px"
	 viewBox="0 0 2992 996" style="enable-background:new 0 0 2992 996;" xml:space="preserve">
<g transform="translate(0.000000,996.000000) scale(0.100000,-0.100000)">
	<path d="M6075,7398c-55-5-154-20-221-33c-635-128-1019-512-1199-1200c-81-306-105-537-112-1066c-7-556,10-824,73-1106
		c85-382,215-648,428-871c118-123,234-209,381-281c247-122,478-175,820-188c353-13,669,44,927,166c203,96,411,271,542,454
		c191,267,306,636,321,1027c3,74,8,150,10,168l4,32h-424h-425l-4-22c-2-13-10-63-16-113c-16-127-57-303-92-404
		c-114-327-287-460-636-490c-206-18-412,13-554,84c-259,130-375,352-422,805c-34,328-28,1147,10,1440c51,394,167,586,428,711
		c120,58,236,80,421,80c189-1,304-23,423-82c185-91,314-286,388-587l28-112l425,2l426,3l-3,90c-11,331-95,614-250,849
		c-97,146-290,321-469,425C6984,7363,6546,7441,6075,7398z"/>
	<path d="M2081,7359c-67-13-165-63-216-110c-64-59-139-177-180-284c-32-83-1495-4264-1495-4272c0-2,214-2,476-1l476,3l127,400
		l127,400l786,3l787,2l36-112c20-62,79-245,132-405l95-293h475c448,0,475,1,471,18c-8,26-1455,4164-1495,4272
		c-89,242-183,344-351,379C2271,7372,2145,7372,2081,7359z M2484,5188l272-913l-559-3c-308-1-562-1-564,1s123,408,277,903
		c154,494,283,907,286,917s8,16,11,13S2335,5690,2484,5188z"/>
	<path d="M10250,7354c-140-37-247-129-328-281c-29-56-275-747-788-2214c-411-1174-749-2142-752-2151c-4-17,23-18,471-18h475l50,157
		c28,87,86,269,129,406l77,247h786h786l131-402l131-403l476-3c262-1,476-1,476,1c0,25-1522,4346-1554,4412c-72,150-145,214-283,250
		C10461,7374,10322,7373,10250,7354z M10669,5197c149-499,271-912,271-917c0-6-209-10-561-10h-561l6,23c5,19,550,1771,562,1806
		c2,8,6,12,9,10C10397,6106,10521,5696,10669,5197z"/>
	<path d="M13023,5518c3-2068-3-1910,73-2138c48-145,103-238,199-335c122-125,256-195,488-255c262-69,516-94,932-95
		c351,0,441,9,667,65c297,74,521,201,720,409c209,217,315,431,382,771c63,316,72,487,65,1115c-11,812-39,1093-136,1350
		c-119,317-377,609-672,763c-127,66-228,106-352,137c-234,60-195,58-1327,62l-1042,4L13023,5518z M14869,6550
		c242-25,426-116,561-277c167-200,201-410,201-1233c0-858-39-1077-225-1277c-194-208-421-277-832-253c-428,25-590,113-633,344
		c-8,41-11,467-11,1383v1323h419C14579,6560,14813,6555,14869,6550z"/>
	<path d="M17353,5528c3-2022,0-1912,63-2133c27-98,96-249,138-305c154-205,393-319,786-376c112-16,225-19,1113-22l987-3v405v405
		l-882,4c-614,3-901,8-942,16c-141,28-226,74-276,149c-63,95-64,106-68,560l-3,412h725c574,0,726,3,726,13c0,6,14,176,30,377
		s30,380,30,398v32h-755h-755v550v550h1085h1085v405v405h-1545h-1546L17353,5528z"/>
	<path d="M21260,5030V2690h460h460l1,1393l1,1392l74-150c40-82,238-487,438-899c201-412,380-774,398-804c46-76,163-194,223-225
		c114-57,238-57,355,0c70,34,182,147,236,239c22,38,229,467,460,954l419,885l3-1392l2-1393h455h455v2340v2340h-448h-447l-61-122
		c-34-68-328-672-654-1343s-596-1223-599-1227s-303,601-666,1343l-659,1349h-453h-453V5030z"/>
	<path d="M26181,7288c23-46,340-669,705-1385l664-1302v-956v-955h450h450v957v957l631,1241c348,682,665,1304,706,1383l74,142h-498
		l-498-1l-424-932c-233-512-427-936-431-940s-95,182-203,415s-304,655-435,938l-239,515l-496,3l-497,2L26181,7288z"/>
</g>
</svg>
